<svg width="392" height="64" viewBox="0 0 392 64" fill="none" xmlns="http://www.w3.org/2000/svg">
<g clip-path="url(#clip0_80_1202)">
<path d="M41.5964 62.5296V63.8839H33.8989V53.0496H41.3688V54.4039H35.3777V57.7315H40.6863V59.0471H35.3777V62.5296H41.5584H41.5964Z" fill="#161412"/>
<path d="M49.2181 58.4667C49.2181 55.2551 51.6069 52.9335 54.83 52.9335C56.4605 52.9335 57.9014 53.5139 58.8494 54.636L57.8635 55.6034C57.0293 54.7134 56.0434 54.3265 54.8679 54.3265C52.4791 54.3265 50.6969 56.1064 50.6969 58.5054C50.6969 60.9044 52.4791 62.6844 54.8679 62.6844C56.0434 62.6844 57.0293 62.2587 57.8635 61.3688L58.8494 62.3361C57.8635 63.4583 56.4605 64.0387 54.7921 64.0387C51.569 64.0387 49.1802 61.717 49.1802 58.5054L49.2181 58.4667Z" fill="#161412"/>
<path d="M76.254 53.0496V63.8839H74.7373V59.0471H68.6325V63.8839H67.1157V53.0496H68.6325V57.6928H74.7373V53.0496H76.254Z" fill="#161412"/>
<path d="M84.6338 58.4667C84.6338 55.2938 87.0226 52.9335 90.2836 52.9335C93.5446 52.9335 95.8955 55.2938 95.8955 58.4667C95.8955 61.6396 93.5067 64 90.2836 64C87.0606 64 84.6338 61.6396 84.6338 58.4667ZM94.4167 58.4667C94.4167 56.0677 92.6725 54.2878 90.3215 54.2878C87.9706 54.2878 86.1884 56.0677 86.1884 58.4667C86.1884 60.8658 87.9327 62.6457 90.3215 62.6457C92.7104 62.6457 94.4167 60.8658 94.4167 58.4667Z" fill="#161412"/>
<path d="M112.011 62.5296V63.8839H104.313V53.0496H111.783V54.4039H105.792V57.7315H111.101V59.0471H105.792V62.5296H111.973H112.011Z" fill="#161412"/>
<path d="M119.557 62.6457L120.125 61.4462C120.922 62.1814 122.249 62.6844 123.614 62.6844C125.434 62.6844 126.23 61.9492 126.23 61.0205C126.23 58.3893 119.784 60.0532 119.784 56.029C119.784 54.3651 121.073 52.9335 123.841 52.9335C125.093 52.9335 126.382 53.2817 127.254 53.9008L126.761 55.139C125.851 54.5199 124.789 54.2491 123.841 54.2491C122.021 54.2491 121.263 55.023 121.263 55.9516C121.263 58.5828 127.709 56.9577 127.709 60.9044C127.709 62.5683 126.42 64 123.614 64C121.983 64 120.391 63.4583 119.557 62.6457Z" fill="#161412"/>
<path d="M145.303 58.4667C145.303 55.2938 147.692 52.9335 150.953 52.9335C154.214 52.9335 156.565 55.2938 156.565 58.4667C156.565 61.6396 154.176 64 150.953 64C147.73 64 145.303 61.6396 145.303 58.4667ZM155.086 58.4667C155.086 56.0677 153.342 54.2878 150.991 54.2878C148.64 54.2878 146.858 56.0677 146.858 58.4667C146.858 60.8658 148.602 62.6457 150.991 62.6457C153.38 62.6457 155.086 60.8658 155.086 58.4667Z" fill="#161412"/>
<path d="M166.5 54.3652V58.1572H171.808V59.4728H166.5V63.8452H164.983V53.0109H172.453V54.3652H166.462H166.5Z" fill="#161412"/>
<path d="M192.929 54.3652H189.289V53.0109H198.048V54.3652H194.408V63.8452H192.891V54.3652H192.929Z" fill="#161412"/>
<path d="M214.921 53.0496V63.8839H213.404V59.0471H207.299V63.8839H205.783V53.0496H207.299V57.6928H213.404V53.0496H214.921Z" fill="#161412"/>
<path d="M231.871 62.5296V63.8839H224.173V53.0496H231.643V54.4039H225.652V57.7315H230.961V59.0471H225.652V62.5296H231.833H231.871Z" fill="#161412"/>
<path d="M259.096 56.8029C259.096 59.1632 257.428 60.5949 254.66 60.5949H252.044V63.8839H250.527V53.0496H254.66C257.428 53.0496 259.096 54.4812 259.096 56.8416V56.8029ZM257.58 56.8029C257.58 55.2551 256.556 54.3652 254.622 54.3652H252.044V59.2406H254.622C256.556 59.2406 257.58 58.3506 257.58 56.8029Z" fill="#161412"/>
<path d="M274.529 63.8839L272.254 60.5562C272.026 60.5562 271.799 60.5562 271.571 60.5562H268.955V63.8452H267.438V53.0109H271.571C274.339 53.0109 276.008 54.4425 276.008 56.8029C276.008 58.4667 275.173 59.6662 273.657 60.208L276.159 63.8452H274.491L274.529 63.8839ZM274.491 56.8416C274.491 55.2938 273.467 54.4039 271.533 54.4039H268.955V59.2793H271.533C273.467 59.2793 274.491 58.3893 274.491 56.8416Z" fill="#161412"/>
<path d="M292.199 62.5296V63.8839H284.501V53.0496H291.971V54.4039H285.98V57.7315H291.289V59.0471H285.98V62.5296H292.161H292.199Z" fill="#161412"/>
<path d="M299.783 62.6457L300.351 61.4462C301.148 62.1814 302.475 62.6844 303.84 62.6844C305.66 62.6844 306.456 61.9492 306.456 61.0205C306.456 58.3893 300.048 60.0532 300.048 56.029C300.048 54.3651 301.337 52.9335 304.105 52.9335C305.357 52.9335 306.646 53.2817 307.518 53.9008L307.025 55.139C306.115 54.5199 305.053 54.2491 304.105 54.2491C302.285 54.2491 301.527 55.023 301.527 55.9516C301.527 58.5828 307.973 56.9577 307.973 60.9044C307.973 62.5683 306.684 64 303.878 64C302.247 64 300.655 63.4583 299.821 62.6457H299.783Z" fill="#161412"/>
<path d="M323.937 62.5296V63.8839H316.239V53.0496H323.709V54.4039H317.718V57.7315H323.027V59.0471H317.718V62.5296H323.899H323.937Z" fill="#161412"/>
<path d="M341.569 53.0496V63.8839H340.317L333.947 55.7968V63.8839H332.43V53.0496H333.681L340.052 61.1366V53.0496H341.569Z" fill="#161412"/>
<path d="M352.944 54.3652H349.304V53.0109H358.063V54.3652H354.423V63.8452H352.906V54.3652H352.944Z" fill="#161412"/>
<path d="M25.102 24.6094H8.19037L4.70188 32.7352H0L14.409 0.232178H18.9213L33.3682 32.7352H28.5904L25.102 24.6094ZM23.5094 20.8948L16.6462 4.99155L9.78294 20.8948H23.5094Z" fill="#161412"/>
<path d="M41.71 18.6892V0.232178H46.2602V18.5345C46.2602 25.7316 49.4832 28.9819 55.2089 28.9819C60.9346 28.9819 64.2335 25.7316 64.2335 18.5345V0.232178H68.632V18.6892C68.632 28.0919 63.5889 33.0834 55.171 33.0834C46.7531 33.0834 41.71 28.1306 41.71 18.6892Z" fill="#161412"/>
<path d="M103.82 32.7352L96.9571 22.7521C96.3125 22.7908 95.63 22.8295 94.9475 22.8295H87.0605V32.6965H82.5103V0.232178H94.9096C103.176 0.232178 108.181 4.48853 108.181 11.5695C108.181 16.5611 105.64 20.1983 101.166 21.8235L108.712 32.7352H103.745H103.82ZM103.669 11.5695C103.669 6.92625 100.635 4.29506 94.7958 4.29506H87.0605V18.9214H94.7958C100.635 18.9214 103.669 16.2128 103.669 11.6082V11.5695Z" fill="#161412"/>
<path d="M140.45 24.6094H123.538L120.05 32.7352H115.348L129.757 0.232178H134.269L148.716 32.7352H143.938L140.45 24.6094ZM138.857 20.8948L131.994 4.99155L125.131 20.8948H138.857Z" fill="#161412"/>
<path d="M181.553 16.5998H183.79V28.7497C180.946 31.5357 176.775 32.9287 172.415 32.9287C162.821 32.9287 155.769 25.925 155.769 16.445C155.769 6.96493 162.821 -0.0386963 172.453 -0.0386963C177.041 -0.0386963 181.098 1.43168 183.904 4.41112L182.463 5.99758C179.695 3.21161 176.358 2.12817 172.491 2.12817C164.224 2.12817 158.082 8.24184 158.082 16.4063C158.082 24.5707 164.224 30.6844 172.491 30.6844C175.865 30.6844 178.937 29.8331 181.553 27.705V16.5224V16.5998Z" fill="#161412"/>
<path d="M218.22 23.5647H199.754L195.696 32.6965H193.194L207.83 0.232178H210.143L224.78 32.7352H222.277L218.182 23.6034L218.22 23.5647ZM217.348 21.5526L208.968 2.78599L200.664 21.5526H217.348Z" fill="#161412"/>
<path d="M235.132 0.232178H237.445V30.5683H255.759V32.6965H235.094V0.232178H235.132Z" fill="#161412"/>
<path d="M266.338 0.232178H268.651V30.5683H286.966V32.6965H266.338V0.232178Z" fill="#161412"/>
<path d="M319.462 30.5683V32.6965H297.507V0.232178H318.78V2.36035H299.82V15.1681H316.77V17.2576H299.82V30.5683H319.462Z" fill="#161412"/>
<path d="M354.575 32.7352L346.991 21.8622C346.005 22.0169 344.981 22.0943 343.882 22.0943H334.781V32.7352H332.468V0.232178H343.882C351.882 0.232178 356.698 4.33375 356.698 11.1826C356.698 16.3289 353.968 19.8888 349.228 21.3591L357.191 32.7352H354.537H354.575ZM343.882 20.0048C350.707 20.0048 354.347 16.7545 354.347 11.1826C354.347 5.61065 350.707 2.36035 343.882 2.36035H334.781V20.0048H343.882Z" fill="#161412"/>
<path d="M379.146 21.5139V32.6965H376.833V21.5139L364.016 0.232178H366.557L378.046 19.347L389.573 0.232178H392L379.183 21.5139H379.146Z" fill="#161412"/>
</g>
<defs>
<clipPath id="clip0_80_1202">
<rect width="392" height="64" fill="white"/>
</clipPath>
</defs>
</svg>
