<svg width="392" height="34" viewBox="0 0 392 34" fill="none" xmlns="http://www.w3.org/2000/svg">
<path d="M25.102 24.6385H8.19037L4.70188 32.7611H0L14.409 0.270813H18.9213L33.3682 32.7611H28.5904L25.102 24.6385ZM23.5094 20.9253L16.6462 5.02832L9.78294 20.9253H23.5094Z" fill="#161412"/>
<path d="M41.71 18.7206V0.270813H46.2602V18.5659C46.2602 25.7602 49.4832 29.0092 55.2089 29.0092C60.9346 29.0092 64.2335 25.7602 64.2335 18.5659V0.270813H68.632V18.7206C68.632 28.1196 63.5889 33.1092 55.171 33.1092C46.7531 33.1092 41.71 28.1583 41.71 18.7206Z" fill="#161412"/>
<path d="M103.82 32.7611L96.9571 22.7819C96.3125 22.8206 95.63 22.8593 94.9475 22.8593H87.0605V32.7224H82.5103V0.270813H94.9096C103.176 0.270813 108.181 4.52549 108.181 11.6037C108.181 16.5933 105.64 20.2291 101.166 21.8536L108.712 32.7611H103.745H103.82ZM103.669 11.6037C103.669 6.96226 100.635 4.3321 94.7958 4.3321H87.0605V18.9527H94.7958C100.635 18.9527 103.669 16.2452 103.669 11.6424V11.6037Z" fill="#161412"/>
<path d="M140.45 24.6385H123.538L120.05 32.7611H115.348L129.757 0.270813H134.269L148.716 32.7611H143.938L140.45 24.6385ZM138.857 20.9253L131.994 5.02832L125.131 20.9253H138.857Z" fill="#161412"/>
<path d="M181.553 16.6319H183.79V28.7771C180.946 31.562 176.775 32.9544 172.415 32.9544C162.821 32.9544 155.769 25.9535 155.769 16.4772C155.769 7.00088 162.821 0 172.453 0C177.041 0 181.098 1.4698 183.904 4.44807L182.463 6.03391C179.695 3.24903 176.358 2.16602 172.491 2.16602C164.224 2.16602 158.082 8.27728 158.082 16.4385C158.082 24.5998 164.224 30.711 172.491 30.711C175.865 30.711 178.937 29.8601 181.553 27.7328V16.5546V16.6319Z" fill="#161412"/>
<path d="M218.22 23.5942H199.754L195.697 32.7224H193.194L207.831 0.270813H210.144L224.78 32.7611H222.278L218.183 23.6329L218.22 23.5942ZM217.348 21.5829L208.968 2.82362L200.664 21.5829H217.348Z" fill="#161412"/>
<path d="M235.132 0.270813H237.445V30.5951H255.759V32.7224H235.094V0.270813H235.132Z" fill="#161412"/>
<path d="M266.339 0.270813H268.652V30.5951H286.966V32.7224H266.339V0.270813Z" fill="#161412"/>
<path d="M319.462 30.5951V32.7224H297.507V0.270813H318.78V2.39815H299.82V15.2009H316.77V17.2895H299.82V30.5951H319.462Z" fill="#161412"/>
<path d="M354.575 32.7611L346.991 21.8923C346.005 22.047 344.981 22.1244 343.882 22.1244H334.781V32.7611H332.468V0.270813H343.882C351.882 0.270813 356.698 4.37078 356.698 11.2169C356.698 16.3612 353.968 19.9197 349.228 21.3895L357.191 32.7611H354.537H354.575ZM343.882 20.0357C350.707 20.0357 354.347 16.7867 354.347 11.2169C354.347 5.64718 350.707 2.39815 343.882 2.39815H334.781V20.0357H343.882Z" fill="#161412"/>
<path d="M379.146 21.5442V32.7224H376.833V21.5442L364.016 0.270813H366.557L378.046 19.3782L389.573 0.270813H392L379.183 21.5442H379.146Z" fill="#161412"/>
<path d="M25.102 24.6385H8.19037L4.70188 32.7611H0L14.409 0.270813H18.9213L33.3682 32.7611H28.5904L25.102 24.6385ZM23.5094 20.9253L16.6462 5.02832L9.78294 20.9253H23.5094Z" fill="#161412"/>
<path d="M41.71 18.7206V0.270813H46.2602V18.5659C46.2602 25.7602 49.4832 29.0092 55.2089 29.0092C60.9346 29.0092 64.2335 25.7602 64.2335 18.5659V0.270813H68.632V18.7206C68.632 28.1196 63.5889 33.1092 55.171 33.1092C46.7531 33.1092 41.71 28.1583 41.71 18.7206Z" fill="#161412"/>
<path d="M103.82 32.7611L96.9571 22.7819C96.3125 22.8206 95.63 22.8593 94.9475 22.8593H87.0605V32.7224H82.5103V0.270813H94.9096C103.176 0.270813 108.181 4.52549 108.181 11.6037C108.181 16.5933 105.64 20.2291 101.166 21.8536L108.712 32.7611H103.745H103.82ZM103.669 11.6037C103.669 6.96226 100.635 4.3321 94.7958 4.3321H87.0605V18.9527H94.7958C100.635 18.9527 103.669 16.2452 103.669 11.6424V11.6037Z" fill="#161412"/>
<path d="M140.45 24.6385H123.538L120.05 32.7611H115.348L129.757 0.270813H134.269L148.716 32.7611H143.938L140.45 24.6385ZM138.857 20.9253L131.994 5.02832L125.131 20.9253H138.857Z" fill="#161412"/>
<path d="M181.553 16.6319H183.79V28.7771C180.946 31.562 176.775 32.9544 172.415 32.9544C162.821 32.9544 155.769 25.9535 155.769 16.4772C155.769 7.00088 162.821 0 172.453 0C177.041 0 181.098 1.4698 183.904 4.44807L182.463 6.03391C179.695 3.24903 176.358 2.16602 172.491 2.16602C164.224 2.16602 158.082 8.27728 158.082 16.4385C158.082 24.5998 164.224 30.711 172.491 30.711C175.865 30.711 178.937 29.8601 181.553 27.7328V16.5546V16.6319Z" fill="#161412"/>
<path d="M218.22 23.5942H199.754L195.697 32.7224H193.194L207.831 0.270813H210.144L224.78 32.7611H222.278L218.183 23.6329L218.22 23.5942ZM217.348 21.5829L208.968 2.82362L200.664 21.5829H217.348Z" fill="#161412"/>
<path d="M235.132 0.270813H237.445V30.5951H255.759V32.7224H235.094V0.270813H235.132Z" fill="#161412"/>
<path d="M266.339 0.270813H268.652V30.5951H286.966V32.7224H266.339V0.270813Z" fill="#161412"/>
<path d="M319.462 30.5951V32.7224H297.507V0.270813H318.78V2.39815H299.82V15.2009H316.77V17.2895H299.82V30.5951H319.462Z" fill="#161412"/>
<path d="M354.575 32.7611L346.991 21.8923C346.005 22.047 344.981 22.1244 343.882 22.1244H334.781V32.7611H332.468V0.270813H343.882C351.882 0.270813 356.698 4.37078 356.698 11.2169C356.698 16.3612 353.968 19.9197 349.228 21.3895L357.191 32.7611H354.537H354.575ZM343.882 20.0357C350.707 20.0357 354.347 16.7867 354.347 11.2169C354.347 5.64718 350.707 2.39815 343.882 2.39815H334.781V20.0357H343.882Z" fill="#161412"/>
<path d="M379.146 21.5442V32.7224H376.833V21.5442L364.016 0.270813H366.557L378.046 19.3782L389.573 0.270813H392L379.183 21.5442H379.146Z" fill="#161412"/>
</svg>
