<svg width="203" height="33" viewBox="0 0 203 33" fill="none" xmlns="http://www.w3.org/2000/svg">
<g clip-path="url(#clip0_77_922)">
<path d="M21.5409 32.2419V32.9402H17.5547V27.3538H21.423V28.0521H18.3205V29.7679H21.0696V30.4463H18.3205V32.2419H21.5212H21.5409Z" fill="white"/>
<path d="M25.4884 30.147C25.4884 28.491 26.7255 27.2939 28.3946 27.2939C29.2389 27.2939 29.9851 27.5932 30.476 28.1718L29.9655 28.6706C29.5335 28.2117 29.0229 28.0122 28.4142 28.0122C27.1771 28.0122 26.2542 28.93 26.2542 30.167C26.2542 31.404 27.1771 32.3218 28.4142 32.3218C29.0229 32.3218 29.5335 32.1023 29.9655 31.6434L30.476 32.1422C29.9655 32.7208 29.2389 33.0201 28.3749 33.0201C26.7058 33.0201 25.4688 31.823 25.4688 30.167L25.4884 30.147Z" fill="white"/>
<path d="M39.4882 27.3538V32.9402H38.7028V30.4463H35.5413V32.9402H34.7559V27.3538H35.5413V29.748H38.7028V27.3538H39.4882Z" fill="white"/>
<path d="M43.8281 30.147C43.8281 28.511 45.0652 27.2939 46.7539 27.2939C48.4427 27.2939 49.6601 28.511 49.6601 30.147C49.6601 31.7831 48.423 33.0001 46.7539 33.0001C45.0848 33.0001 43.8281 31.7831 43.8281 30.147ZM48.8943 30.147C48.8943 28.91 47.991 27.9923 46.7736 27.9923C45.5561 27.9923 44.6332 28.91 44.6332 30.147C44.6332 31.384 45.5365 32.3018 46.7736 32.3018C48.0107 32.3018 48.8943 31.384 48.8943 30.147Z" fill="white"/>
<path d="M58.0057 32.2419V32.9402H54.0195V27.3538H57.8879V28.0521H54.7853V29.7679H57.5344V30.4463H54.7853V32.2419H57.9861H58.0057Z" fill="white"/>
<path d="M61.9131 32.3018L62.2076 31.6833C62.62 32.0624 63.3073 32.3218 64.0142 32.3218C64.9567 32.3218 65.3691 31.9427 65.3691 31.4638C65.3691 30.1071 62.0309 30.965 62.0309 28.8901C62.0309 28.0322 62.6985 27.2939 64.132 27.2939C64.78 27.2939 65.4476 27.4735 65.8993 27.7927L65.644 28.4312C65.1727 28.112 64.6229 27.9723 64.132 27.9723C63.1894 27.9723 62.7967 28.3713 62.7967 28.8502C62.7967 30.2069 66.1349 29.3689 66.1349 31.404C66.1349 32.2619 65.4673 33.0001 64.0142 33.0001C63.1698 33.0001 62.3451 32.7208 61.9131 32.3018Z" fill="white"/>
<path d="M75.2461 30.147C75.2461 28.511 76.4832 27.2939 78.1719 27.2939C79.8606 27.2939 81.0781 28.511 81.0781 30.147C81.0781 31.7831 79.841 33.0001 78.1719 33.0001C76.5028 33.0001 75.2461 31.7831 75.2461 30.147ZM80.3123 30.147C80.3123 28.91 79.409 27.9923 78.1915 27.9923C76.9741 27.9923 76.0512 28.91 76.0512 30.147C76.0512 31.384 76.9545 32.3018 78.1915 32.3018C79.4286 32.3018 80.3123 31.384 80.3123 30.147Z" fill="white"/>
<path d="M86.223 28.032V29.9873H88.972V30.6657H86.223V32.9202H85.4375V27.3337H89.3059V28.032H86.2033H86.223Z" fill="white"/>
<path d="M99.9095 28.032H98.0244V27.3337H102.56V28.032H100.675V32.9202H99.8899V28.032H99.9095Z" fill="white"/>
<path d="M111.299 27.3538V32.9402H110.513V30.4463H107.352V32.9402H106.566V27.3538H107.352V29.748H110.513V27.3538H111.299Z" fill="white"/>
<path d="M120.076 32.2419V32.9402H116.09V27.3538H119.958V28.0521H116.856V29.7679H119.605V30.4463H116.856V32.2419H120.056H120.076Z" fill="white"/>
<path d="M134.175 29.2891C134.175 30.5061 133.311 31.2443 131.878 31.2443H130.523V32.9402H129.737V27.3538H131.878C133.311 27.3538 134.175 28.092 134.175 29.309V29.2891ZM133.39 29.2891C133.39 28.491 132.859 28.0321 131.858 28.0321H130.523V30.546H131.858C132.859 30.546 133.39 30.0871 133.39 29.2891Z" fill="white"/>
<path d="M142.167 32.9401L140.989 31.2243C140.871 31.2243 140.753 31.2243 140.635 31.2243H139.281V32.9202H138.495V27.3337H140.635C142.069 27.3337 142.933 28.072 142.933 29.289C142.933 30.1469 142.501 30.7654 141.715 31.0447L143.011 32.9202H142.147L142.167 32.9401ZM142.147 29.309C142.147 28.5109 141.617 28.052 140.616 28.052H139.281V30.5659H140.616C141.617 30.5659 142.147 30.107 142.147 29.309Z" fill="white"/>
<path d="M151.317 32.2419V32.9402H147.331V27.3538H151.199V28.0521H148.097V29.7679H150.846V30.4463H148.097V32.2419H151.298H151.317Z" fill="white"/>
<path d="M155.244 32.3018L155.539 31.6833C155.951 32.0624 156.638 32.3218 157.345 32.3218C158.288 32.3218 158.7 31.9427 158.7 31.4638C158.7 30.1071 155.382 30.965 155.382 28.8901C155.382 28.0322 156.049 27.2939 157.483 27.2939C158.131 27.2939 158.798 27.4735 159.25 27.7927L158.995 28.4312C158.523 28.112 157.974 27.9723 157.483 27.9723C156.54 27.9723 156.147 28.3713 156.147 28.8502C156.147 30.2069 159.486 29.3689 159.486 31.404C159.486 32.2619 158.818 33.0001 157.365 33.0001C156.521 33.0001 155.696 32.7208 155.264 32.3018H155.244Z" fill="white"/>
<path d="M167.753 32.2419V32.9402H163.767V27.3538H167.635V28.0521H164.532V29.7679H167.281V30.4463H164.532V32.2419H167.733H167.753Z" fill="white"/>
<path d="M176.884 27.3538V32.9402H176.236L172.937 28.7703V32.9402H172.151V27.3538H172.799L176.098 31.5237V27.3538H176.884Z" fill="white"/>
<path d="M182.775 28.032H180.89V27.3337H185.426V28.032H183.541V32.9202H182.755V28.032H182.775Z" fill="white"/>
<path d="M12.9992 12.6892H4.24144L2.4349 16.879H0L7.46179 0.119629H9.79851L17.2799 16.879H14.8058L12.9992 12.6892ZM12.1745 10.7738L8.62033 2.57368L5.06616 10.7738H12.1745Z" fill="white"/>
<path d="M21.5996 9.63656V0.119629H23.956V9.55675C23.956 13.2678 25.6251 14.9437 28.5901 14.9437C31.5552 14.9437 33.2636 13.2678 33.2636 9.55675V0.119629H35.5414V9.63656C35.5414 14.4848 32.9298 17.0586 28.5705 17.0586C24.2112 17.0586 21.5996 14.5048 21.5996 9.63656Z" fill="white"/>
<path d="M53.7641 16.879L50.2099 11.7315C49.8761 11.7514 49.5227 11.7714 49.1692 11.7714H45.0849V16.859H42.7285V0.119629H49.1496C53.4303 0.119629 56.0223 2.31431 56.0223 5.96546C56.0223 8.53922 54.7067 10.4147 52.3896 11.2526L56.2972 16.879H53.7248H53.7641ZM53.6856 5.96546C53.6856 3.57126 52.1147 2.21455 49.0907 2.21455H45.0849V9.75627H49.0907C52.1147 9.75627 53.6856 8.35965 53.6856 5.98541V5.96546Z" fill="white"/>
<path d="M72.7326 12.6892H63.9748L62.1683 16.879H59.7334L67.1952 0.119629H69.5319L77.0133 16.879H74.5392L72.7326 12.6892ZM71.9079 10.7738L68.3537 2.57368L64.7996 10.7738H71.9079Z" fill="white"/>
<path d="M94.0187 8.55918H95.1772V14.824C93.7045 16.2605 91.5445 16.9788 89.2863 16.9788C84.3184 16.9788 80.666 13.3675 80.666 8.47938C80.666 3.59123 84.3184 -0.0200195 89.306 -0.0200195C91.682 -0.0200195 93.7831 0.738142 95.2361 2.27442L94.49 3.09243C93.0565 1.65592 91.3285 1.09727 89.3256 1.09727C85.0449 1.09727 81.8638 4.24963 81.8638 8.45942C81.8638 12.6692 85.0449 15.8216 89.3256 15.8216C91.0733 15.8216 92.6638 15.3826 94.0187 14.2853V8.51928V8.55918Z" fill="white"/>
<path d="M113.007 12.1505H103.444L101.343 16.859H100.047L107.626 0.119629H108.824L116.404 16.879H115.108L112.987 12.1704L113.007 12.1505ZM112.555 11.113L108.216 1.43644L103.915 11.113H112.555Z" fill="white"/>
<path d="M121.765 0.119629H122.963V15.7617H132.447V16.859H121.745V0.119629H121.765Z" fill="white"/>
<path d="M137.926 0.119629H139.124V15.7617H148.608V16.859H137.926V0.119629Z" fill="white"/>
<path d="M165.436 15.7617V16.859H154.066V0.119629H165.082V1.21697H155.264V7.82096H164.042V8.89835H155.264V15.7617H165.436Z" fill="white"/>
<path d="M183.619 16.879L179.692 11.2726C179.181 11.3524 178.651 11.3923 178.081 11.3923H173.369V16.879H172.171V0.119629H178.081C182.225 0.119629 184.718 2.2345 184.718 5.76594C184.718 8.41951 183.305 10.2551 180.85 11.0132L184.974 16.879H183.599H183.619ZM178.081 10.3149C181.616 10.3149 183.501 8.63898 183.501 5.76594C183.501 2.89291 181.616 1.21697 178.081 1.21697H173.369V10.3149H178.081Z" fill="white"/>
<path d="M196.344 11.093V16.859H195.146V11.093L188.509 0.119629H189.824L195.774 9.97574L201.744 0.119629H203L196.363 11.093H196.344Z" fill="white"/>
</g>
<defs>
<clipPath id="clip0_77_922">
<rect width="203" height="33" fill="white"/>
</clipPath>
</defs>
</svg>
